<svg width="176" height="236" viewBox="0 0 176 236" fill="none" xmlns="http://www.w3.org/2000/svg">
<path d="M167.65 177.163C158.841 164.951 144.279 158.217 126.571 158.217L88.2789 158.217L82.7059 174.739L126.481 174.739C138.706 174.739 148.594 179.049 154.167 186.861C159.829 194.673 160.728 205.359 156.863 216.942L156.234 218.918H95.6497C83.425 218.918 73.5373 214.607 67.9643 206.795C62.3014 198.983 61.4025 188.298 65.2677 176.714L102.211 66.6271C108.054 49.1173 106.256 32.5054 97.0879 19.7547C87.9194 7.00392 72.7284 0 54.2115 0L39.6497 0L3.3351 108.112C-1.87839 123.736 -0.97951 139.091 6.03173 151.303C11.6946 161.18 21.043 168.364 32.6385 172.045L37.852 156.421C30.0317 153.997 24.0093 149.507 20.3239 143.042C15.7396 134.96 15.2003 124.454 18.9755 113.32L51.5149 16.4323H54.2115C67.2452 16.4323 77.6722 21.0118 83.6946 29.3626C89.7171 37.7134 90.7059 49.0275 86.571 61.419L49.6272 171.506C43.9643 188.298 45.7621 204.191 54.5711 216.493C63.38 228.705 77.9418 235.44 95.6497 235.44H168.099L172.504 222.24C178.167 205.448 176.369 189.555 167.56 177.253L167.65 177.163Z" fill="#542FFC"/>
</svg>
