<svg width="490" height="192" viewBox="0 0 490 192" fill="none" xmlns="http://www.w3.org/2000/svg">
<g clip-path="url(#clip0_7204_7791)">
<path d="M127.9 0L66.1615 0C29.6215 0 0 29.652 0 66.2296L0 125.77C0 162.348 29.6215 192 66.1615 192L127.9 192C164.44 192 194.061 162.348 194.061 125.77L194.061 66.2296C194.061 29.652 164.44 0 127.9 0Z" fill="#542FFC"/>
<path d="M138.77 127.231C134.159 120.824 126.536 117.291 117.265 117.291H97.2193L94.3018 125.959L117.218 125.959C123.618 125.959 128.794 128.22 131.712 132.318C134.676 136.416 135.147 142.022 133.123 148.098L132.794 149.134H101.078C94.6782 149.134 89.502 146.873 86.5845 142.775C83.6199 138.677 83.1494 133.072 85.1728 126.995L104.513 69.2444C107.572 60.0589 106.631 51.3445 101.831 44.6555C97.031 37.9666 89.0785 34.2924 79.3848 34.2924L71.7617 34.2924L52.7508 91.0069C50.0215 99.2031 50.4921 107.258 54.1625 113.664C57.1271 118.846 62.021 122.614 68.0913 124.546L70.8205 116.349C66.7266 115.078 63.5738 112.722 61.6445 109.331C59.2446 105.091 58.9623 99.58 60.9387 93.739L77.9731 42.9127L79.3848 42.9127C86.208 42.9127 91.6666 45.315 94.8194 49.6958C97.9722 54.0766 98.4898 60.0118 96.3252 66.5123L76.985 124.263C74.0204 133.072 74.9615 141.409 79.5731 147.863C84.1846 154.269 91.8078 157.802 101.078 157.802H139.006L141.311 150.877C144.276 142.069 143.335 133.731 138.723 127.278L138.77 127.231Z" fill="white"/>
<path d="M241.118 142.493L235.519 156.389H238.389L239.612 153.327H245.683L246.906 156.389H249.777L244.177 142.493H241.165H241.118ZM240.554 150.736L242.624 145.366L244.695 150.736H240.554Z" fill="#12184A"/>
<path d="M253.824 142.493H251.095V156.389H253.824V142.493Z" fill="#12184A"/>
<path d="M263.188 142.493H260.459V156.389H270.106V153.986H263.188V142.493Z" fill="#12184A"/>
<path d="M275.658 146.308C272.787 146.308 270.481 148.428 270.481 151.443C270.481 154.457 272.834 156.577 275.752 156.577C278.152 156.577 279.893 155.258 280.41 153.562L278.011 152.903C277.728 153.657 276.928 154.316 275.752 154.316C274.387 154.316 273.305 153.421 273.117 152.102H280.504C280.504 152.102 280.552 151.49 280.552 151.066C280.552 148.145 278.481 146.214 275.611 146.214L275.658 146.308ZM273.211 150.312C273.54 149.134 274.481 148.569 275.658 148.569C276.834 148.569 277.869 149.229 278.058 150.312H273.211Z" fill="#12184A"/>
<path d="M285.916 146.308C283.799 146.308 282.152 147.344 281.54 149.04L283.564 150.077C283.987 149.134 284.834 148.522 285.964 148.522C287.093 148.522 287.799 148.993 287.799 149.935V150.171L284.599 150.689C282.575 151.019 281.493 152.008 281.493 153.704C281.493 155.541 283.093 156.624 284.975 156.624C286.199 156.624 287.14 156.247 287.846 155.541V156.389H290.434V149.982C290.434 147.863 288.646 146.355 285.964 146.355L285.916 146.308ZM287.752 152.667C287.752 153.939 286.811 154.646 285.54 154.646C284.646 154.646 283.987 154.269 283.987 153.562C283.987 152.997 284.411 152.62 285.069 152.526L287.752 152.102V152.714V152.667Z" fill="#12184A"/>
<path d="M299.751 147.486C298.998 146.732 297.869 146.308 296.598 146.308C293.728 146.308 291.61 148.428 291.61 151.443C291.61 154.457 293.681 156.577 296.598 156.577C297.869 156.577 298.904 156.2 299.751 155.447V156.342H302.386V142.446H299.751V147.439V147.486ZM297.022 154.269C295.469 154.269 294.293 153.091 294.293 151.49C294.293 149.888 295.469 148.711 297.022 148.711C298.575 148.711 299.751 149.888 299.751 151.49C299.751 153.091 298.575 154.269 297.022 154.269Z" fill="#12184A"/>
<path d="M314.291 142.493H308.88V156.389H311.609V151.819H314.338C317.35 151.819 319.421 149.935 319.421 147.156C319.421 144.377 317.397 142.493 314.338 142.493H314.291ZM314.338 149.417H311.562V144.895H314.338C315.703 144.895 316.644 145.79 316.644 147.156C316.644 148.522 315.703 149.417 314.338 149.417Z" fill="#12184A"/>
<path d="M323.232 147.58V146.497H320.597V156.342H323.232V151.066C323.232 149.558 324.267 148.569 325.961 148.569C326.243 148.569 326.526 148.569 326.808 148.663V146.308C326.526 146.308 326.243 146.261 325.914 146.261C324.738 146.261 323.797 146.732 323.185 147.58H323.232Z" fill="#12184A"/>
<path d="M332.314 146.308C329.35 146.308 327.044 148.428 327.044 151.443C327.044 154.457 329.35 156.577 332.314 156.577C335.279 156.577 337.585 154.457 337.585 151.443C337.585 148.428 335.232 146.308 332.314 146.308ZM332.314 154.222C330.761 154.222 329.679 153.044 329.679 151.443C329.679 149.841 330.808 148.663 332.314 148.663C333.82 148.663 334.949 149.841 334.949 151.443C334.949 153.044 333.82 154.222 332.314 154.222Z" fill="#12184A"/>
<path d="M343.795 148.663C345.019 148.663 345.819 149.417 346.054 150.077L348.407 149.464C347.936 147.721 346.148 146.308 343.748 146.308C340.784 146.308 338.619 148.428 338.619 151.443C338.619 154.457 340.784 156.577 343.748 156.577C346.195 156.577 347.983 155.164 348.407 153.421L346.054 152.809C345.819 153.515 345.019 154.222 343.795 154.222C342.29 154.222 341.207 153.186 341.207 151.443C341.207 149.7 342.29 148.663 343.795 148.663Z" fill="#12184A"/>
<path d="M354.383 146.308C351.513 146.308 349.207 148.428 349.207 151.443C349.207 154.457 351.56 156.577 354.477 156.577C356.877 156.577 358.618 155.258 359.136 153.562L356.736 152.903C356.454 153.657 355.654 154.316 354.477 154.316C353.113 154.316 352.03 153.421 351.842 152.102H359.23C359.23 152.102 359.277 151.49 359.277 151.066C359.277 148.145 357.207 146.214 354.336 146.214L354.383 146.308ZM351.936 150.312C352.266 149.134 353.207 148.569 354.383 148.569C355.56 148.569 356.595 149.229 356.783 150.312H351.936Z" fill="#12184A"/>
<path d="M365.583 150.595L364.36 150.265C363.325 150.029 362.948 149.7 362.948 149.229C362.948 148.711 363.419 148.287 364.172 148.287C365.019 148.287 365.725 148.805 365.96 149.558L368.219 149.134C367.842 147.392 366.242 146.308 364.172 146.308C361.913 146.308 360.501 147.533 360.501 149.37C360.501 150.783 361.395 151.725 363.136 152.243L364.36 152.62C365.395 152.903 365.819 153.233 365.819 153.751C365.819 154.269 365.301 154.646 364.454 154.646C363.372 154.646 362.572 154.08 362.431 153.186L360.172 153.751C360.36 155.352 362.242 156.624 364.454 156.624C366.666 156.624 368.266 155.352 368.266 153.515C368.266 152.008 367.372 151.113 365.63 150.595H365.583Z" fill="#12184A"/>
<path d="M374.571 150.595L373.347 150.265C372.312 150.029 371.936 149.7 371.936 149.229C371.936 148.711 372.406 148.287 373.159 148.287C374.006 148.287 374.712 148.805 374.947 149.558L377.206 149.134C376.829 147.392 375.23 146.308 373.159 146.308C370.9 146.308 369.489 147.533 369.489 149.37C369.489 150.783 370.383 151.725 372.124 152.243L373.347 152.62C374.382 152.903 374.806 153.233 374.806 153.751C374.806 154.269 374.288 154.646 373.441 154.646C372.359 154.646 371.559 154.08 371.418 153.186L369.159 153.751C369.347 155.352 371.23 156.624 373.441 156.624C375.653 156.624 377.253 155.352 377.253 153.515C377.253 152.008 376.359 151.113 374.618 150.595H374.571Z" fill="#12184A"/>
<path d="M381.206 146.544H378.57V156.389H381.206V146.544Z" fill="#12184A"/>
<path d="M379.842 142.022C378.9 142.022 378.147 142.822 378.147 143.717C378.147 144.612 378.9 145.413 379.842 145.413C380.783 145.413 381.536 144.659 381.536 143.717C381.536 142.775 380.783 142.022 379.842 142.022Z" fill="#12184A"/>
<path d="M388.358 146.308C387.134 146.308 386.24 146.685 385.581 147.392V146.544H382.946V156.389H385.581V150.783C385.581 149.511 386.334 148.711 387.511 148.711C388.687 148.711 389.393 149.511 389.393 150.783V156.389H392.028V150.029C392.028 147.863 390.522 146.308 388.311 146.308H388.358Z" fill="#12184A"/>
<path d="M403.887 146.544H401.252V147.486C400.499 146.732 399.369 146.308 398.099 146.308C395.323 146.308 393.205 148.428 393.205 151.254C393.205 154.08 395.276 156.153 398.099 156.153C399.369 156.153 400.452 155.729 401.252 154.975C401.487 155.494 401.628 155.965 401.628 156.342C401.628 157.566 400.452 158.414 398.664 158.414C397.111 158.414 395.699 157.802 395.181 156.86L393.205 158.037C393.958 159.639 396.076 160.628 398.617 160.628C401.958 160.628 404.216 158.885 404.216 156.342C404.216 155.776 404.075 155.117 403.84 154.504V146.449L403.887 146.544ZM398.522 153.798C397.017 153.798 395.887 152.762 395.887 151.254C395.887 149.747 397.017 148.663 398.522 148.663C400.122 148.663 401.252 149.747 401.252 151.254C401.252 152.762 400.122 153.798 398.522 153.798Z" fill="#12184A"/>
<path d="M414.568 142.493L408.969 156.389H411.839L413.063 153.327H419.133L420.356 156.389H423.227L417.627 142.493H414.616H414.568ZM414.004 150.736L416.074 145.366L418.145 150.736H414.004Z" fill="#12184A"/>
<path d="M428.827 150.595L427.603 150.265C426.568 150.029 426.191 149.7 426.191 149.229C426.191 148.711 426.662 148.287 427.415 148.287C428.262 148.287 428.968 148.805 429.203 149.558L431.462 149.134C431.085 147.392 429.485 146.308 427.415 146.308C425.156 146.308 423.744 147.533 423.744 149.37C423.744 150.783 424.638 151.725 426.38 152.243L427.603 152.62C428.638 152.903 429.062 153.233 429.062 153.751C429.062 154.269 428.544 154.646 427.697 154.646C426.615 154.646 425.815 154.08 425.674 153.186L423.415 153.751C423.603 155.352 425.486 156.624 427.697 156.624C429.909 156.624 431.509 155.352 431.509 153.515C431.509 152.008 430.615 151.113 428.874 150.595H428.827Z" fill="#12184A"/>
<path d="M437.815 150.595L436.591 150.265C435.556 150.029 435.18 149.7 435.18 149.229C435.18 148.711 435.65 148.287 436.403 148.287C437.25 148.287 437.956 148.805 438.191 149.558L440.45 149.134C440.074 147.392 438.474 146.308 436.403 146.308C434.144 146.308 432.733 147.533 432.733 149.37C432.733 150.783 433.627 151.725 435.368 152.243L436.591 152.62C437.627 152.903 438.05 153.233 438.05 153.751C438.05 154.269 437.533 154.646 436.685 154.646C435.603 154.646 434.803 154.08 434.662 153.186L432.403 153.751C432.592 155.352 434.474 156.624 436.685 156.624C438.897 156.624 440.497 155.352 440.497 153.515C440.497 152.008 439.603 151.113 437.862 150.595H437.815Z" fill="#12184A"/>
<path d="M444.403 146.544H441.768V156.389H444.403V146.544Z" fill="#12184A"/>
<path d="M443.085 142.022C442.144 142.022 441.391 142.822 441.391 143.717C441.391 144.612 442.144 145.413 443.085 145.413C444.026 145.413 444.779 144.659 444.779 143.717C444.779 142.775 444.026 142.022 443.085 142.022Z" fill="#12184A"/>
<path d="M451.226 150.595L450.002 150.265C448.967 150.029 448.591 149.7 448.591 149.229C448.591 148.711 449.061 148.287 449.814 148.287C450.661 148.287 451.367 148.805 451.602 149.558L453.861 149.134C453.485 147.392 451.885 146.308 449.814 146.308C447.556 146.308 446.144 147.533 446.144 149.37C446.144 150.783 447.038 151.725 448.779 152.243L450.002 152.62C451.038 152.903 451.461 153.233 451.461 153.751C451.461 154.269 450.944 154.646 450.097 154.646C449.014 154.646 448.214 154.08 448.073 153.186L445.814 153.751C446.003 155.352 447.885 156.624 450.097 156.624C452.308 156.624 453.908 155.352 453.908 153.515C453.908 152.008 453.014 151.113 451.273 150.595H451.226Z" fill="#12184A"/>
<path d="M460.025 154.316C459.225 154.316 458.755 153.845 458.755 153.044V148.758H461.154V146.544H458.755V143.906H456.119V144.707C456.119 146.073 455.884 146.591 455.084 146.591H454.284V148.805H456.119V153.233C456.119 155.211 457.531 156.53 459.649 156.53C460.307 156.53 461.013 156.389 461.625 156.2L461.249 154.128C460.872 154.269 460.402 154.316 459.978 154.316H460.025Z" fill="#12184A"/>
<path d="M466.754 146.308C464.637 146.308 462.99 147.344 462.378 149.04L464.402 150.077C464.825 149.134 465.672 148.522 466.801 148.522C467.931 148.522 468.637 148.993 468.637 149.935V150.171L465.437 150.689C463.413 151.019 462.331 152.008 462.331 153.704C462.331 155.541 463.931 156.624 465.813 156.624C467.037 156.624 467.978 156.247 468.684 155.541V156.389H471.272V149.982C471.272 147.863 469.484 146.355 466.801 146.355L466.754 146.308ZM468.59 152.667C468.59 153.939 467.648 154.646 466.378 154.646C465.484 154.646 464.825 154.269 464.825 153.562C464.825 152.997 465.249 152.62 465.907 152.526L468.59 152.102V152.714V152.667Z" fill="#12184A"/>
<path d="M478.237 146.308C477.013 146.308 476.119 146.685 475.46 147.392V146.544H472.825V156.389H475.46V150.783C475.46 149.511 476.213 148.711 477.39 148.711C478.566 148.711 479.272 149.511 479.272 150.783V156.389H481.907V150.029C481.907 147.863 480.401 146.308 478.19 146.308H478.237Z" fill="#12184A"/>
<path d="M488.353 154.316C487.553 154.316 487.083 153.845 487.083 153.044V148.758H489.483V146.544H487.083V143.906H484.448V144.707C484.448 146.073 484.212 146.591 483.412 146.591H482.612V148.805H484.448V153.233C484.448 155.211 485.859 156.53 487.977 156.53C488.636 156.53 489.341 156.389 489.953 156.2L489.577 154.128C489.2 154.269 488.73 154.316 488.306 154.316H488.353Z" fill="#12184A"/>
<path d="M235.519 34.5751H254.059V112.958L301.257 112.958V129.35H235.566L235.566 34.5751H235.519Z" fill="#12184A"/>
<path d="M317.867 31.3248C324.361 31.3248 329.49 36.7419 329.49 42.9598C329.49 49.1776 324.361 54.4534 317.867 54.4534C311.373 54.4534 306.244 49.1776 306.244 42.9598C306.244 36.7419 311.373 31.3248 317.867 31.3248ZM308.926 62.1786H326.902V129.303H308.926V62.1786Z" fill="#12184A"/>
<path d="M335.984 95.7174C335.984 75.1325 350.195 60.5299 369.912 60.5299C378.429 60.5299 386.006 63.3562 391.276 68.5378V34.5751L409.251 34.5751V129.303H391.276V123.085C385.723 128.22 378.429 130.952 369.912 130.952C350.148 130.952 335.984 116.349 335.984 95.7645V95.7174ZM372.641 114.654C383.323 114.654 391.323 106.552 391.323 95.7174C391.323 84.8832 383.323 76.7812 372.641 76.7812C361.96 76.7812 353.96 84.6477 353.96 95.7174C353.96 106.787 361.96 114.654 372.641 114.654Z" fill="#12184A"/>
<path d="M417.815 95.7174C417.815 74.9912 433.768 60.5299 453.908 60.5299C474.048 60.5299 490 74.9912 490 95.7174C490 116.444 474.189 130.905 453.908 130.905C433.626 130.905 417.815 116.444 417.815 95.7174ZM453.908 114.654C464.448 114.654 472.025 106.646 472.025 95.7174C472.025 84.789 464.448 76.7812 453.908 76.7812C443.367 76.7812 435.791 84.789 435.791 95.7174C435.791 106.646 443.367 114.654 453.908 114.654Z" fill="#12184A"/>
</g>
<defs>
<clipPath id="clip0_7204_7791">
<rect width="490" height="192" fill="white"/>
</clipPath>
</defs>
</svg>
